<svg width="134" height="25" viewBox="0 0 134 25" fill="none" xmlns="http://www.w3.org/2000/svg">
<path d="M22.7188 15.625C22.7188 16.9896 22.4792 18.2448 22 19.3906C21.5312 20.5365 20.8802 21.526 20.0469 22.3594C19.2135 23.1823 18.224 23.8281 17.0781 24.2969C15.9323 24.7656 14.6875 25 13.3438 25H2.375C2.08333 25 1.8125 24.9479 1.5625 24.8438C1.3125 24.7396 1.09375 24.599 0.90625 24.4219C0.729167 24.2344 0.588542 24.0156 0.484375 23.7656C0.380208 23.5156 0.328125 23.2448 0.328125 22.9531V4.64062C0.328125 4.35938 0.380208 4.09375 0.484375 3.84375C0.588542 3.59375 0.729167 3.375 0.90625 3.1875C1.09375 3 1.3125 2.85417 1.5625 2.75C1.8125 2.64583 2.08333 2.59375 2.375 2.59375H13.3438C14.6875 2.59375 15.9323 2.82812 17.0781 3.29688C18.224 3.76562 19.2135 4.41667 20.0469 5.25C20.8802 6.07292 21.5312 7.0625 22 8.21875C22.4792 9.36458 22.7188 10.6146 22.7188 11.9688V15.625ZM18.6562 11.9688C18.6562 11.1771 18.526 10.4531 18.2656 9.79688C18.0156 9.14062 17.6562 8.58333 17.1875 8.125C16.7188 7.65625 16.1562 7.29688 15.5 7.04688C14.8542 6.78646 14.1354 6.65625 13.3438 6.65625H4.39062V20.9375H13.3438C14.1354 20.9375 14.8542 20.8125 15.5 20.5625C16.1562 20.3021 16.7188 19.9427 17.1875 19.4844C17.6562 19.0156 18.0156 18.4583 18.2656 17.8125C18.526 17.1562 18.6562 16.4271 18.6562 15.625V11.9688ZM30.375 4.64062H26.3125V0.96875H30.375V4.64062ZM30.375 25H26.3125V8.10938H30.375V25ZM50.6094 19.2969C50.6094 19.9948 50.5208 20.625 50.3438 21.1875C50.1667 21.7396 49.9323 22.2292 49.6406 22.6562C49.349 23.0729 49.0104 23.4323 48.625 23.7344C48.2396 24.026 47.8333 24.2656 47.4062 24.4531C46.9896 24.6406 46.5625 24.7812 46.125 24.875C45.6979 24.9583 45.2917 25 44.9062 25H33.9062V20.9375H44.875C45.4271 20.9375 45.8438 20.7969 46.125 20.5156C46.4062 20.2344 46.5469 19.8281 46.5469 19.2969C46.4948 18.2135 45.9479 17.6719 44.9062 17.6719H38.6094C37.7135 17.6719 36.9531 17.5156 36.3281 17.2031C35.7031 16.8906 35.1927 16.5 34.7969 16.0312C34.4115 15.5625 34.1302 15.0573 33.9531 14.5156C33.7865 13.974 33.7031 13.4688 33.7031 13C33.7031 12.0938 33.8646 11.3333 34.1875 10.7188C34.5104 10.0938 34.9167 9.58854 35.4062 9.20312C35.8958 8.81771 36.4271 8.54167 37 8.375C37.5729 8.19792 38.1094 8.10938 38.6094 8.10938H48.5938V12.1719H38.6406C38.4323 12.1719 38.2656 12.1979 38.1406 12.25C38.026 12.2917 37.9375 12.3542 37.875 12.4375C37.8229 12.5104 37.7917 12.5938 37.7812 12.6875C37.7708 12.7708 37.7656 12.8542 37.7656 12.9375C37.776 13.1042 37.8073 13.2344 37.8594 13.3281C37.9115 13.4219 37.974 13.4896 38.0469 13.5312C38.1302 13.5729 38.2188 13.599 38.3125 13.6094C38.4167 13.6094 38.5156 13.6094 38.6094 13.6094H44.9062C45.9479 13.6094 46.8333 13.7969 47.5625 14.1719C48.2917 14.5469 48.8802 15.0208 49.3281 15.5938C49.776 16.1562 50.099 16.7708 50.2969 17.4375C50.5052 18.1042 50.6094 18.724 50.6094 19.2969ZM73.3125 25H67.4531L59.2656 17.0938C58.8073 16.6771 58.5938 16.1562 58.625 15.5312C58.6458 15.2396 58.7188 14.9688 58.8438 14.7188C58.9792 14.4583 59.1615 14.2396 59.3906 14.0625L66.8125 8.07812H73.3125L63.75 15.7812L73.3125 25ZM57.5938 25H53.5312V0.96875H57.5938V25ZM94.0625 22.9531C94.0625 23.2448 94.0104 23.5156 93.9062 23.7656C93.8021 24.0156 93.6562 24.2344 93.4688 24.4219C93.2917 24.599 93.0781 24.7396 92.8281 24.8438C92.5885 24.9479 92.3281 25 92.0469 25H82.8594C82.3594 25 81.8229 24.9427 81.25 24.8281C80.6875 24.7135 80.1302 24.5312 79.5781 24.2812C79.026 24.0208 78.4896 23.6979 77.9688 23.3125C77.4583 22.9167 77.0104 22.4427 76.625 21.8906C76.2396 21.3281 75.9271 20.6823 75.6875 19.9531C75.4583 19.224 75.3438 18.401 75.3438 17.4844V8.10938H79.4062V17.4844C79.4062 18.0156 79.4948 18.4948 79.6719 18.9219C79.8594 19.3385 80.1094 19.6979 80.4219 20C80.7344 20.3021 81.099 20.5365 81.5156 20.7031C81.9427 20.8594 82.401 20.9375 82.8906 20.9375H90V8.10938H94.0625V22.9531ZM114.203 19.2969C114.203 19.9948 114.115 20.625 113.938 21.1875C113.76 21.7396 113.526 22.2292 113.234 22.6562C112.943 23.0729 112.604 23.4323 112.219 23.7344C111.833 24.026 111.427 24.2656 111 24.4531C110.583 24.6406 110.156 24.7812 109.719 24.875C109.292 24.9583 108.885 25 108.5 25H97.5V20.9375H108.469C109.021 20.9375 109.438 20.7969 109.719 20.5156C110 20.2344 110.141 19.8281 110.141 19.2969C110.089 18.2135 109.542 17.6719 108.5 17.6719H102.203C101.307 17.6719 100.547 17.5156 99.9219 17.2031C99.2969 16.8906 98.7865 16.5 98.3906 16.0312C98.0052 15.5625 97.724 15.0573 97.5469 14.5156C97.3802 13.974 97.2969 13.4688 97.2969 13C97.2969 12.0938 97.4583 11.3333 97.7812 10.7188C98.1042 10.0938 98.5104 9.58854 99 9.20312C99.4896 8.81771 100.021 8.54167 100.594 8.375C101.167 8.19792 101.703 8.10938 102.203 8.10938H112.188V12.1719H102.234C102.026 12.1719 101.859 12.1979 101.734 12.25C101.62 12.2917 101.531 12.3542 101.469 12.4375C101.417 12.5104 101.385 12.5938 101.375 12.6875C101.365 12.7708 101.359 12.8542 101.359 12.9375C101.37 13.1042 101.401 13.2344 101.453 13.3281C101.505 13.4219 101.568 13.4896 101.641 13.5312C101.724 13.5729 101.812 13.599 101.906 13.6094C102.01 13.6094 102.109 13.6094 102.203 13.6094H108.5C109.542 13.6094 110.427 13.7969 111.156 14.1719C111.885 14.5469 112.474 15.0208 112.922 15.5938C113.37 16.1562 113.693 16.7708 113.891 17.4375C114.099 18.1042 114.203 18.724 114.203 19.2969ZM133.391 19.2969C133.391 19.9948 133.302 20.625 133.125 21.1875C132.948 21.7396 132.714 22.2292 132.422 22.6562C132.13 23.0729 131.792 23.4323 131.406 23.7344C131.021 24.026 130.615 24.2656 130.188 24.4531C129.771 24.6406 129.344 24.7812 128.906 24.875C128.479 24.9583 128.073 25 127.688 25H116.688V20.9375H127.656C128.208 20.9375 128.625 20.7969 128.906 20.5156C129.188 20.2344 129.328 19.8281 129.328 19.2969C129.276 18.2135 128.729 17.6719 127.688 17.6719H121.391C120.495 17.6719 119.734 17.5156 119.109 17.2031C118.484 16.8906 117.974 16.5 117.578 16.0312C117.193 15.5625 116.911 15.0573 116.734 14.5156C116.568 13.974 116.484 13.4688 116.484 13C116.484 12.0938 116.646 11.3333 116.969 10.7188C117.292 10.0938 117.698 9.58854 118.188 9.20312C118.677 8.81771 119.208 8.54167 119.781 8.375C120.354 8.19792 120.891 8.10938 121.391 8.10938H131.375V12.1719H121.422C121.214 12.1719 121.047 12.1979 120.922 12.25C120.807 12.2917 120.719 12.3542 120.656 12.4375C120.604 12.5104 120.573 12.5938 120.562 12.6875C120.552 12.7708 120.547 12.8542 120.547 12.9375C120.557 13.1042 120.589 13.2344 120.641 13.3281C120.693 13.4219 120.755 13.4896 120.828 13.5312C120.911 13.5729 121 13.599 121.094 13.6094C121.198 13.6094 121.297 13.6094 121.391 13.6094H127.688C128.729 13.6094 129.615 13.7969 130.344 14.1719C131.073 14.5469 131.661 15.0208 132.109 15.5938C132.557 16.1562 132.88 16.7708 133.078 17.4375C133.286 18.1042 133.391 18.724 133.391 19.2969Z" fill="#2A84FF"/>
</svg>
