<svg width="130" height="27" viewBox="0 0 130 27" fill="none" xmlns="http://www.w3.org/2000/svg">
<path d="M1.32495 24.8012C1.32495 24.356 1.34431 23.9204 1.38302 23.4945C1.42174 23.0686 1.4411 22.5701 1.4411 21.999C1.4411 19.4242 1.43142 16.8446 1.41206 14.2601C1.40238 11.6757 1.35883 9.06218 1.28139 6.41964C1.17491 6.21637 1.07812 5.99374 0.991 5.75175C0.913564 5.50976 0.874845 5.30165 0.874845 5.12741C0.874845 4.71119 0.986161 4.36273 1.20879 4.08202C1.4411 3.79163 1.83313 3.64643 2.38486 3.64643C2.66557 3.64643 2.94144 3.68515 3.21247 3.76259C3.4835 3.83035 3.77389 3.86422 4.08364 3.86422C4.76121 3.86422 5.43394 3.83035 6.10184 3.76259C6.76973 3.68515 7.45214 3.64643 8.14907 3.64643C9.57198 3.64643 10.8448 3.78679 11.9677 4.0675C13.1002 4.33853 14.0924 4.72087 14.9442 5.21453C15.796 5.69851 16.5219 6.27929 17.1221 6.95686C17.7222 7.62475 18.2062 8.36041 18.574 9.16381C18.9515 9.95754 19.2274 10.8045 19.4016 11.7047C19.5759 12.5952 19.663 13.5003 19.663 14.4198C19.663 15.2426 19.5759 16.1235 19.4016 17.0624C19.2371 17.9916 18.9612 18.916 18.574 19.8356C18.1868 20.7455 17.6835 21.6215 17.064 22.4636C16.4445 23.296 15.6798 24.0317 14.7699 24.6706C13.86 25.3094 12.7953 25.8224 11.5757 26.2096C10.3657 26.5871 8.97668 26.7759 7.40858 26.7759C7.04076 26.7759 6.67293 26.7565 6.30511 26.7178C5.94696 26.6888 5.58398 26.65 5.21615 26.6016C4.84833 26.5629 4.47566 26.529 4.09816 26.5C3.73033 26.4613 3.35283 26.4419 2.96564 26.4419C2.37519 26.4419 1.95412 26.3064 1.70245 26.0354C1.45078 25.7643 1.32495 25.353 1.32495 24.8012ZM4.56278 23.3057C4.76605 23.3638 5.00804 23.4122 5.28875 23.4509C5.57914 23.48 5.86953 23.5042 6.15991 23.5235C6.4503 23.5429 6.72133 23.5574 6.973 23.5671C7.23435 23.5671 7.43762 23.5671 7.58282 23.5671C8.78309 23.5671 9.83333 23.417 10.7335 23.117C11.6337 22.8169 12.4033 22.4249 13.0421 21.9409C13.6907 21.4569 14.2279 20.91 14.6538 20.3002C15.0797 19.6904 15.4136 19.0757 15.6556 18.4562C15.9073 17.8367 16.0815 17.2415 16.1783 16.6704C16.2751 16.0993 16.3235 15.6104 16.3235 15.2039C16.3235 13.5971 16.1299 12.2613 15.7427 11.1965C15.3652 10.1221 14.8038 9.26545 14.0585 8.62659C13.3228 7.98774 12.4129 7.53764 11.3288 7.27629C10.2544 7.01494 9.0154 6.88426 7.61186 6.88426C7.42794 6.88426 7.20047 6.8891 6.92944 6.89878C6.66809 6.90846 6.39222 6.91814 6.10184 6.92782C5.81145 6.9375 5.52106 6.95202 5.23067 6.97138C4.94996 6.99074 4.69829 7.00526 4.47566 7.01494L4.56278 23.3057ZM28.6941 6.49224C28.4617 6.59872 28.2198 6.65195 27.9681 6.65195C27.7164 6.64227 27.4841 6.58904 27.2711 6.49224C27.0679 6.38576 26.8888 6.23573 26.7339 6.04214C26.5791 5.84855 26.4823 5.61623 26.4435 5.34521C26.4145 5.16129 26.4193 4.95318 26.4581 4.72087C26.5065 4.47888 26.5645 4.23689 26.6323 3.9949C26.7097 3.74323 26.7775 3.50124 26.8356 3.26893C26.9033 3.02694 26.9469 2.80915 26.9662 2.61555C26.9953 2.17997 27.126 1.81699 27.3583 1.5266C27.5906 1.23621 27.939 1.05714 28.4037 0.98938C28.7425 0.931302 29.0619 0.950661 29.3619 1.04746C29.662 1.14425 29.8846 1.35721 30.0298 1.68631C30.0782 1.79279 30.117 1.91862 30.146 2.06382C30.1847 2.19933 30.2138 2.32033 30.2331 2.4268C30.2428 2.5236 30.238 2.64459 30.2186 2.78979C30.2089 2.93498 30.1847 3.08986 30.146 3.25441C30.1073 3.40928 30.0589 3.569 30.0008 3.73355C29.9524 3.88842 29.904 4.02394 29.8556 4.14009C29.7782 4.30465 29.7249 4.48372 29.6959 4.67731C29.6765 4.86123 29.6523 5.03062 29.6233 5.18549C29.5943 5.34037 29.5652 5.48072 29.5362 5.60656C29.5071 5.73239 29.4587 5.84855 29.391 5.95502C29.3329 6.0615 29.2458 6.15829 29.1296 6.24541C29.0232 6.33253 28.878 6.4148 28.6941 6.49224ZM26.2112 25.411C26.2112 25.1691 26.2209 24.9658 26.2403 24.8012C26.2693 24.6367 26.2935 24.4576 26.3129 24.264C26.3419 24.0607 26.3661 23.8236 26.3855 23.5526C26.4145 23.2815 26.429 22.9137 26.429 22.4491C26.429 20.7164 26.4242 18.9983 26.4145 17.2947C26.4048 15.5814 26.3806 13.7713 26.3419 11.8644C26.1967 11.8741 26.0322 11.8838 25.8482 11.8935C25.6643 11.9031 25.4707 11.9128 25.2675 11.9225C25.0739 11.9225 24.8851 11.9273 24.7012 11.937C24.5173 11.937 24.3527 11.937 24.2076 11.937C24.0333 11.937 23.8542 11.9128 23.6703 11.8644C23.4961 11.8063 23.3364 11.7144 23.1912 11.5886C23.046 11.4627 22.925 11.303 22.8282 11.1094C22.7314 10.9061 22.683 10.6593 22.683 10.3689C22.683 9.85591 22.8185 9.46872 23.0896 9.20737C23.3703 8.93634 23.6994 8.80083 24.0769 8.80083C24.4447 8.80083 24.8077 8.82019 25.1658 8.85891C25.5337 8.88794 25.8918 8.90246 26.2403 8.90246C26.5984 8.90246 26.9566 8.88794 27.3147 8.85891C27.6729 8.82019 28.0116 8.80083 28.3311 8.80083C28.8247 8.80083 29.178 8.9315 29.391 9.19285C29.6039 9.4542 29.7104 9.81719 29.7104 10.2818C29.7104 10.6787 29.6765 11.0707 29.6088 11.4579C29.541 11.8354 29.5071 12.2419 29.5071 12.6775C29.5071 13.5487 29.5023 14.4247 29.4926 15.3055C29.4829 16.1864 29.4733 17.0817 29.4636 17.9916C29.4636 18.9015 29.4587 19.8307 29.4491 20.7793C29.4491 21.728 29.4587 22.7056 29.4781 23.7123C29.633 23.7026 29.7733 23.6784 29.8992 23.6397C30.025 23.601 30.146 23.5622 30.2621 23.5235C30.3783 23.4751 30.4993 23.4364 30.6251 23.4074C30.7606 23.3686 30.9107 23.3493 31.0752 23.3493C31.3269 23.3493 31.5302 23.3783 31.6851 23.4364C31.8496 23.4945 31.9803 23.5768 32.0771 23.6832C32.1739 23.78 32.2465 23.9059 32.2949 24.0607C32.3433 24.2059 32.3868 24.3656 32.4255 24.5399C32.4933 24.9948 32.382 25.3578 32.0916 25.6288C31.8012 25.8999 31.4043 26.1128 30.901 26.2677C30.6106 26.3451 30.3105 26.4226 30.0008 26.5C29.7007 26.5774 29.4152 26.6452 29.1442 26.7033C28.8731 26.771 28.6263 26.8243 28.4037 26.863C28.181 26.9017 28.0068 26.9211 27.881 26.9211C27.3099 26.9211 26.8888 26.7855 26.6178 26.5145C26.3467 26.2532 26.2112 25.8853 26.2112 25.411ZM35.5763 22.7395C35.5763 22.5168 35.6295 22.3136 35.736 22.1297C35.8424 21.9457 35.9731 21.7909 36.128 21.665C36.2925 21.5295 36.4716 21.4279 36.6652 21.3601C36.8588 21.2827 37.0476 21.244 37.2315 21.244C37.4541 21.244 37.6429 21.2682 37.7977 21.3166C37.9526 21.365 38.0881 21.4327 38.2043 21.5198C38.3204 21.607 38.4221 21.7086 38.5092 21.8247C38.5963 21.9409 38.6883 22.0667 38.785 22.2023C39.1722 22.783 39.7385 23.2331 40.4838 23.5526C41.2291 23.8623 42.202 24.0172 43.4022 24.0172C43.8959 24.0172 44.3605 23.9736 44.7961 23.8865C45.2413 23.7994 45.6285 23.6687 45.9576 23.4945C46.2964 23.3202 46.5626 23.1073 46.7562 22.8556C46.9595 22.604 47.0611 22.3136 47.0611 21.9845C47.0611 21.5392 46.9304 21.1617 46.6691 20.8519C46.4174 20.5422 46.0786 20.276 45.6527 20.0534C45.2365 19.8307 44.7622 19.642 44.2298 19.4871C43.6975 19.3322 43.1506 19.1822 42.5891 19.037C42.0761 18.9112 41.5583 18.7757 41.0356 18.6305C40.5129 18.4756 40.0047 18.3014 39.511 18.1078C39.0174 17.9045 38.5527 17.6674 38.1172 17.3963C37.6913 17.1156 37.3186 16.7865 36.9992 16.409C36.6797 16.0315 36.4232 15.5959 36.2296 15.1023C36.0457 14.5989 35.9538 14.023 35.9538 13.3744C35.9538 12.5033 36.157 11.7676 36.5636 11.1675C36.9798 10.5577 37.5122 10.064 38.1607 9.68651C38.8189 9.30901 39.5497 9.03798 40.3531 8.87342C41.1566 8.69919 41.9454 8.61208 42.7198 8.61208C43.1651 8.61208 43.5716 8.63627 43.9394 8.68467C44.3073 8.73307 44.6509 8.79599 44.9703 8.87342C45.2897 8.95086 45.5947 9.04766 45.885 9.16381C46.1754 9.27029 46.4658 9.3816 46.7562 9.49776C46.7949 9.35257 46.853 9.20737 46.9304 9.06218C47.0176 8.9073 47.1192 8.77179 47.2353 8.65563C47.3515 8.5298 47.487 8.42816 47.6419 8.35073C47.7968 8.27329 47.971 8.23457 48.1646 8.23457C48.6389 8.23457 49.0067 8.32653 49.2681 8.51044C49.5294 8.69435 49.6601 9.01862 49.6601 9.48324C49.6601 9.85107 49.6456 10.2334 49.6165 10.6303C49.5875 11.0271 49.573 11.4627 49.573 11.937C49.6214 12.0532 49.6553 12.1839 49.6746 12.329C49.694 12.4646 49.7037 12.5856 49.7037 12.692C49.7037 12.9243 49.6649 13.1228 49.5875 13.2873C49.5101 13.4422 49.4036 13.5729 49.2681 13.6794C49.1326 13.7761 48.9728 13.8487 48.7889 13.8971C48.6147 13.9455 48.4211 13.9697 48.2082 13.9697C48.0146 13.9697 47.8258 13.9359 47.6419 13.8681C47.4677 13.8003 47.3079 13.7132 47.1628 13.6068C47.0176 13.4906 46.8917 13.3599 46.7852 13.2147C46.6788 13.0695 46.5965 12.9195 46.5384 12.7646C46.3835 12.6388 46.1851 12.4984 45.9431 12.3436C45.7108 12.179 45.4301 12.029 45.101 11.8935C44.7816 11.7579 44.4137 11.6466 43.9975 11.5595C43.5813 11.4627 43.1215 11.4143 42.6182 11.4143C42.1245 11.4143 41.6647 11.4627 41.2388 11.5595C40.8226 11.6466 40.4596 11.7773 40.1499 11.9515C39.8498 12.1258 39.6127 12.3339 39.4384 12.5759C39.2642 12.8179 39.1771 13.0889 39.1771 13.389C39.1771 13.7761 39.2932 14.1101 39.5255 14.3908C39.7675 14.6618 40.087 14.9038 40.4838 15.1168C40.8807 15.32 41.3405 15.504 41.8632 15.6685C42.3955 15.8331 42.9473 15.9928 43.5184 16.1477C44.3024 16.3606 45.0913 16.5978 45.885 16.8591C46.6885 17.1205 47.4096 17.4592 48.0484 17.8755C48.697 18.282 49.2245 18.7999 49.6311 19.429C50.0376 20.0485 50.2409 20.8277 50.2409 21.7667C50.2409 22.4926 50.1296 23.1218 49.9069 23.6542C49.6843 24.1866 49.3891 24.6464 49.0212 25.0335C48.6534 25.411 48.2227 25.7256 47.729 25.9773C47.245 26.2193 46.7368 26.408 46.2045 26.5436C45.6818 26.6888 45.1494 26.7855 44.6073 26.8339C44.0653 26.892 43.5523 26.9211 43.0683 26.9211C42.3907 26.9211 41.7373 26.8581 41.1082 26.7323C40.479 26.6065 39.8837 26.4371 39.3223 26.2241C38.7705 26.0112 38.2623 25.7643 37.7977 25.4836C37.3428 25.2029 36.9508 24.9077 36.6217 24.598C36.2925 24.2882 36.036 23.9736 35.8521 23.6542C35.6682 23.3348 35.5763 23.0299 35.5763 22.7395ZM54.9742 25.4836C54.9742 24.99 55.0081 24.506 55.0758 24.0317C55.1436 23.5574 55.1775 23.0541 55.1775 22.5217C55.1775 21.9506 55.1726 21.2149 55.163 20.3147C55.163 19.4048 55.1581 18.403 55.1484 17.3092C55.1388 16.2154 55.1291 15.0587 55.1194 13.8391C55.1097 12.6098 55.0952 11.395 55.0758 10.1947C55.0662 8.99442 55.0516 7.83771 55.0323 6.72455C55.0226 5.60172 55.0129 4.59504 55.0032 3.70451C54.7322 3.75291 54.3837 3.77711 53.9578 3.77711C53.7836 3.77711 53.6045 3.74807 53.4206 3.68999C53.2464 3.63191 53.0818 3.5448 52.927 3.42864C52.7818 3.30281 52.6608 3.13825 52.564 2.93498C52.4769 2.73171 52.4333 2.48488 52.4333 2.19449C52.4333 1.68147 52.5688 1.29429 52.8398 1.03294C53.1109 0.761909 53.4351 0.626394 53.8126 0.626394C53.9578 0.626394 54.103 0.645754 54.2482 0.684472C54.4031 0.723191 54.5628 0.74255 54.7274 0.74255C55.1146 0.74255 55.4969 0.723191 55.8744 0.684472C56.2616 0.645754 56.6681 0.626394 57.094 0.626394C57.5006 0.626394 57.8297 0.761909 58.0814 1.03294C58.3427 1.29429 58.4734 1.65727 58.4734 2.12189C58.454 2.38324 58.4347 2.62523 58.4153 2.84787C58.3959 3.0705 58.3766 3.31249 58.3572 3.57384C58.3379 3.83519 58.3185 4.13041 58.2991 4.45952C58.2798 4.78863 58.2701 5.19033 58.2701 5.66463C58.2508 6.98106 58.2314 8.21521 58.212 9.36708C58.2024 10.5093 58.1927 11.5498 58.183 12.4888C58.5411 11.9951 58.9574 11.516 59.4317 11.0513C59.9156 10.577 60.448 10.1608 61.0288 9.80267C61.6193 9.44452 62.2581 9.15897 62.9454 8.94602C63.6326 8.72339 64.3634 8.61208 65.1378 8.61208C66.067 8.61208 66.885 8.73791 67.5916 8.98958C68.2982 9.23157 68.8838 9.58004 69.3484 10.035C69.8227 10.4802 70.176 11.0271 70.4083 11.6757C70.6503 12.3145 70.7713 13.026 70.7713 13.81C70.7713 14.4586 70.6697 15.0539 70.4664 15.5959C70.2728 16.138 70.0115 16.6268 69.6824 17.0624C69.3629 17.498 68.9951 17.8803 68.5789 18.2094C68.1627 18.5385 67.7368 18.8095 67.3012 19.0225C67.7174 19.371 68.0368 19.7727 68.2595 20.2276C68.4918 20.6729 68.6757 21.152 68.8112 21.665C68.8693 21.8683 68.9322 22.0861 69 22.3184C69.0677 22.5507 69.15 22.7685 69.2468 22.9718C69.3436 23.1654 69.4501 23.3299 69.5662 23.4654C69.6921 23.5913 69.8276 23.6542 69.9728 23.6542C70.2341 23.6542 70.4906 23.6106 70.7423 23.5235C70.994 23.4267 71.2602 23.3783 71.5409 23.3783C71.9668 23.3783 72.3201 23.5235 72.6008 23.8139C72.8912 24.0946 73.0364 24.4963 73.0364 25.019C73.0364 25.4352 72.925 25.7692 72.7024 26.0209C72.4895 26.2725 72.2136 26.4661 71.8748 26.6016C71.5457 26.7468 71.1827 26.8388 70.7858 26.8775C70.389 26.9259 70.0066 26.9501 69.6388 26.9501C68.9612 26.9501 68.4047 26.8291 67.9691 26.5871C67.5335 26.3451 67.1705 26.0305 66.8801 25.6434C66.5994 25.2562 66.3768 24.8254 66.2122 24.3511C66.0477 23.8768 65.8976 23.4074 65.7621 22.9427C65.6653 22.6136 65.5685 22.3039 65.4717 22.0135C65.3846 21.7134 65.2733 21.4521 65.1378 21.2295C65.012 21.0068 64.8619 20.8326 64.6877 20.7068C64.5135 20.5712 64.2957 20.5035 64.0343 20.5035C63.3083 20.5035 62.7615 20.3922 62.3936 20.1695C62.0258 19.9469 61.8419 19.5452 61.8419 18.9644C61.8419 18.4514 62.0064 18.0594 62.3355 17.7883C62.6743 17.5173 63.1196 17.3818 63.6713 17.3818C63.8068 17.3818 63.923 17.3915 64.0198 17.4108C64.1263 17.4205 64.2328 17.435 64.3392 17.4544C64.5909 17.3576 64.891 17.2269 65.2394 17.0624C65.5879 16.8881 65.9218 16.6655 66.2413 16.3945C66.5607 16.1235 66.8317 15.7992 67.0544 15.4217C67.277 15.0442 67.3883 14.5941 67.3883 14.0714C67.3883 13.1712 67.1173 12.542 66.5752 12.1839C66.0428 11.8257 65.2975 11.6466 64.3392 11.6466C63.681 11.6466 63.0325 11.816 62.3936 12.1548C61.7548 12.4936 61.1595 12.9437 60.6077 13.5051C60.0657 14.0665 59.5817 14.7151 59.1558 15.4507C58.7396 16.1767 58.4153 16.9317 58.183 17.7158L58.2266 19.5888C58.2266 19.6759 58.2266 19.7775 58.2266 19.8937C58.2266 20.0001 58.2266 20.1841 58.2266 20.4454C58.2362 20.7068 58.2459 21.0794 58.2556 21.5634C58.2653 22.0377 58.2749 22.6814 58.2846 23.4945C58.4298 23.4558 58.5799 23.4122 58.7347 23.3638C58.8993 23.3057 59.0638 23.2767 59.2284 23.2767C59.7608 23.2767 60.1625 23.4074 60.4335 23.6687C60.7045 23.9204 60.84 24.293 60.84 24.7867C60.84 25.1545 60.7675 25.4498 60.6223 25.6724C60.4771 25.8853 60.2883 26.0547 60.056 26.1806C59.8334 26.2967 59.5865 26.379 59.3155 26.4274C59.0445 26.4758 58.7831 26.5145 58.5315 26.5436C58.1927 26.5823 57.849 26.6549 57.5006 26.7613C57.1618 26.8678 56.8133 26.9211 56.4552 26.9211C55.8841 26.9211 55.4921 26.8001 55.2791 26.5581C55.0758 26.3161 54.9742 25.9579 54.9742 25.4836ZM75.8386 18.5724C75.8386 17.6625 75.9354 16.68 76.129 15.625C76.3323 14.5699 76.6565 13.5584 77.1018 12.5904C76.9082 12.6485 76.7291 12.6775 76.5646 12.6775C76.1968 12.6775 75.9112 12.6146 75.7079 12.4888C75.5047 12.3532 75.3546 12.1984 75.2578 12.0241C75.1707 11.8499 75.1175 11.6708 75.0981 11.4869C75.0884 11.303 75.0836 11.1578 75.0836 11.0513C75.0836 10.7609 75.132 10.5238 75.2288 10.3399C75.3256 10.1463 75.4611 9.99142 75.6353 9.87526C75.8096 9.75911 76.0225 9.66715 76.2742 9.5994C76.5355 9.53164 76.8259 9.46388 77.1454 9.39612C77.3099 9.37676 77.489 9.33321 77.6826 9.26545C77.8762 9.18801 78.0649 9.11058 78.2488 9.03314C78.5005 8.92666 78.7667 8.82987 79.0474 8.74275C79.3281 8.65563 79.6185 8.61208 79.9186 8.61208C80.2283 8.61208 80.4897 8.65563 80.7026 8.74275C80.9252 8.82987 81.1043 8.95086 81.2398 9.10574C81.385 9.25093 81.4867 9.42516 81.5447 9.62843C81.6125 9.82203 81.6464 10.0301 81.6464 10.2528C81.6464 10.5335 81.5835 10.819 81.4576 11.1094C81.3318 11.3998 81.1527 11.6757 80.9204 11.937C80.6107 12.2855 80.3396 12.7162 80.1073 13.2293C79.875 13.7423 79.6766 14.2988 79.512 14.899C79.3571 15.4894 79.2362 16.1041 79.149 16.743C79.0716 17.3721 79.0329 17.9819 79.0329 18.5724C79.0329 20.3922 79.4055 21.7328 80.1509 22.5943C80.9059 23.4558 82.0142 23.8865 83.4758 23.8865C83.9501 23.8865 84.4244 23.8187 84.8987 23.6832C85.3827 23.5477 85.8522 23.3638 86.3071 23.1315C86.7717 22.8895 87.2122 22.6088 87.6284 22.2894C88.0543 21.9603 88.4511 21.607 88.819 21.2295C88.8383 20.4067 88.8528 19.6468 88.8625 18.9499C88.8722 18.2433 88.877 17.556 88.877 16.8881C88.877 16.4816 88.877 16.0993 88.877 15.7411C88.877 15.3733 88.8722 15.0151 88.8625 14.6667C88.8528 14.3085 88.8432 13.9407 88.8335 13.5632C88.8238 13.176 88.8093 12.7549 88.7899 12.3C88.4899 12.3871 88.2043 12.4549 87.9333 12.5033C87.6623 12.5517 87.459 12.5759 87.3235 12.5759C87.1202 12.5759 86.9266 12.542 86.7427 12.4742C86.5588 12.4065 86.3942 12.3048 86.249 12.1693C86.1038 12.0338 85.9877 11.8644 85.9006 11.6612C85.8134 11.4482 85.7699 11.2014 85.7699 10.9207C85.7699 10.6206 85.8231 10.3786 85.9296 10.1947C86.0458 10.0011 86.2055 9.85107 86.4087 9.74459C86.6217 9.62843 86.8734 9.53648 87.1638 9.46872C87.4541 9.40096 87.7784 9.32837 88.1366 9.25093C88.3398 9.22189 88.5334 9.17349 88.7173 9.10574C88.9109 9.0283 89.1045 8.9557 89.2981 8.88794C89.4917 8.81051 89.6901 8.74759 89.8934 8.69919C90.0967 8.64111 90.3096 8.61208 90.5323 8.61208C90.8807 8.61208 91.1469 8.67499 91.3308 8.80083C91.5147 8.91698 91.6503 9.08154 91.7374 9.29449C91.8245 9.49776 91.8729 9.74459 91.8826 10.035C91.9019 10.3157 91.9116 10.6158 91.9116 10.9352C91.9116 11.2159 91.9116 11.5789 91.9116 12.0241C91.9116 12.4597 91.9164 12.9534 91.9261 13.5051C91.9261 15.0926 91.9406 16.7091 91.9697 18.3546C91.9987 19.9905 92.0132 21.7425 92.0132 23.6106C92.0132 23.872 92.0278 24.1382 92.0568 24.4092C92.0955 24.6706 92.1149 24.9561 92.1149 25.2658C92.1149 25.5272 92.0955 25.7595 92.0568 25.9628C92.0278 26.1564 91.9455 26.3209 91.81 26.4564C91.6841 26.592 91.4905 26.6984 91.2292 26.7759C90.9775 26.863 90.6242 26.9114 90.1693 26.9211C89.8789 26.9211 89.6321 26.863 89.4288 26.7468C89.2352 26.6404 89.0755 26.5048 88.9496 26.3403C88.8335 26.1757 88.7464 26.0015 88.6883 25.8176C88.6399 25.624 88.6157 25.4498 88.6157 25.2949C88.6157 25.1884 88.6205 25.1061 88.6302 25.0481C88.6496 24.9803 88.6689 24.898 88.6883 24.8012C88.243 25.1884 87.7833 25.5175 87.3089 25.7885C86.8443 26.0499 86.3845 26.2677 85.9296 26.4419C85.4747 26.6065 85.0294 26.7275 84.5938 26.8049C84.1679 26.8823 83.7711 26.9211 83.4032 26.9211C80.8865 26.9211 78.9942 26.2096 77.7261 24.7867C76.4678 23.3638 75.8386 21.2924 75.8386 18.5724ZM96.2094 22.7395C96.2094 22.5168 96.2626 22.3136 96.3691 22.1297C96.4755 21.9457 96.6062 21.7909 96.7611 21.665C96.9256 21.5295 97.1047 21.4279 97.2983 21.3601C97.4919 21.2827 97.6807 21.244 97.8646 21.244C98.0872 21.244 98.276 21.2682 98.4308 21.3166C98.5857 21.365 98.7212 21.4327 98.8374 21.5198C98.9535 21.607 99.0552 21.7086 99.1423 21.8247C99.2294 21.9409 99.3214 22.0667 99.4181 22.2023C99.8053 22.783 100.372 23.2331 101.117 23.5526C101.862 23.8623 102.835 24.0172 104.035 24.0172C104.529 24.0172 104.994 23.9736 105.429 23.8865C105.874 23.7994 106.262 23.6687 106.591 23.4945C106.93 23.3202 107.196 23.1073 107.389 22.8556C107.593 22.604 107.694 22.3136 107.694 21.9845C107.694 21.5392 107.564 21.1617 107.302 20.8519C107.051 20.5422 106.712 20.276 106.286 20.0534C105.87 19.8307 105.395 19.642 104.863 19.4871C104.331 19.3322 103.784 19.1822 103.222 19.037C102.709 18.9112 102.191 18.7757 101.669 18.6305C101.146 18.4756 100.638 18.3014 100.144 18.1078C99.6505 17.9045 99.1858 17.6674 98.7503 17.3963C98.3244 17.1156 97.9517 16.7865 97.6323 16.409C97.3128 16.0315 97.0563 15.5959 96.8627 15.1023C96.6788 14.5989 96.5869 14.023 96.5869 13.3744C96.5869 12.5033 96.7901 11.7676 97.1967 11.1675C97.6129 10.5577 98.1453 10.064 98.7938 9.68651C99.452 9.30901 100.183 9.03798 100.986 8.87342C101.79 8.69919 102.579 8.61208 103.353 8.61208C103.798 8.61208 104.205 8.63627 104.573 8.68467C104.94 8.73307 105.284 8.79599 105.603 8.87342C105.923 8.95086 106.228 9.04766 106.518 9.16381C106.809 9.27029 107.099 9.3816 107.389 9.49776C107.428 9.35257 107.486 9.20737 107.564 9.06218C107.651 8.9073 107.752 8.77179 107.868 8.65563C107.985 8.5298 108.12 8.42816 108.275 8.35073C108.43 8.27329 108.604 8.23457 108.798 8.23457C109.272 8.23457 109.64 8.32653 109.901 8.51044C110.163 8.69435 110.293 9.01862 110.293 9.48324C110.293 9.85107 110.279 10.2334 110.25 10.6303C110.221 11.0271 110.206 11.4627 110.206 11.937C110.254 12.0532 110.288 12.1839 110.308 12.329C110.327 12.4646 110.337 12.5856 110.337 12.692C110.337 12.9243 110.298 13.1228 110.221 13.2873C110.143 13.4422 110.037 13.5729 109.901 13.6794C109.766 13.7761 109.606 13.8487 109.422 13.8971C109.248 13.9455 109.054 13.9697 108.841 13.9697C108.648 13.9697 108.459 13.9359 108.275 13.8681C108.101 13.8003 107.941 13.7132 107.796 13.6068C107.651 13.4906 107.525 13.3599 107.418 13.2147C107.312 13.0695 107.23 12.9195 107.172 12.7646C107.017 12.6388 106.818 12.4984 106.576 12.3436C106.344 12.179 106.063 12.029 105.734 11.8935C105.415 11.7579 105.047 11.6466 104.631 11.5595C104.214 11.4627 103.755 11.4143 103.251 11.4143C102.758 11.4143 102.298 11.4627 101.872 11.5595C101.456 11.6466 101.093 11.7773 100.783 11.9515C100.483 12.1258 100.246 12.3339 100.072 12.5759C99.8973 12.8179 99.8102 13.0889 99.8102 13.389C99.8102 13.7761 99.9263 14.1101 100.159 14.3908C100.401 14.6618 100.72 14.9038 101.117 15.1168C101.514 15.32 101.974 15.504 102.496 15.6685C103.029 15.8331 103.58 15.9928 104.151 16.1477C104.936 16.3606 105.724 16.5978 106.518 16.8591C107.322 17.1205 108.043 17.4592 108.682 17.8755C109.33 18.282 109.858 18.7999 110.264 19.429C110.671 20.0485 110.874 20.8277 110.874 21.7667C110.874 22.4926 110.763 23.1218 110.54 23.6542C110.317 24.1866 110.022 24.6464 109.654 25.0335C109.287 25.411 108.856 25.7256 108.362 25.9773C107.878 26.2193 107.37 26.408 106.838 26.5436C106.315 26.6888 105.782 26.7855 105.24 26.8339C104.698 26.892 104.185 26.9211 103.701 26.9211C103.024 26.9211 102.37 26.8581 101.741 26.7323C101.112 26.6065 100.517 26.4371 99.9554 26.2241C99.4036 26.0112 98.8955 25.7643 98.4308 25.4836C97.9759 25.2029 97.5839 24.9077 97.2548 24.598C96.9256 24.2882 96.6691 23.9736 96.4852 23.6542C96.3013 23.3348 96.2094 23.0299 96.2094 22.7395ZM114.359 22.7395C114.359 22.5168 114.412 22.3136 114.518 22.1297C114.625 21.9457 114.755 21.7909 114.91 21.665C115.075 21.5295 115.254 21.4279 115.448 21.3601C115.641 21.2827 115.83 21.244 116.014 21.244C116.236 21.244 116.425 21.2682 116.58 21.3166C116.735 21.365 116.87 21.4327 116.987 21.5198C117.103 21.607 117.204 21.7086 117.292 21.8247C117.379 21.9409 117.471 22.0667 117.567 22.2023C117.955 22.783 118.521 23.2331 119.266 23.5526C120.012 23.8623 120.984 24.0172 122.185 24.0172C122.678 24.0172 123.143 23.9736 123.578 23.8865C124.024 23.7994 124.411 23.6687 124.74 23.4945C125.079 23.3202 125.345 23.1073 125.539 22.8556C125.742 22.604 125.843 22.3136 125.843 21.9845C125.843 21.5392 125.713 21.1617 125.451 20.8519C125.2 20.5422 124.861 20.276 124.435 20.0534C124.019 19.8307 123.545 19.642 123.012 19.4871C122.48 19.3322 121.933 19.1822 121.372 19.037C120.858 18.9112 120.341 18.7757 119.818 18.6305C119.295 18.4756 118.787 18.3014 118.293 18.1078C117.8 17.9045 117.335 17.6674 116.9 17.3963C116.474 17.1156 116.101 16.7865 115.782 16.409C115.462 16.0315 115.206 15.5959 115.012 15.1023C114.828 14.5989 114.736 14.023 114.736 13.3744C114.736 12.5033 114.939 11.7676 115.346 11.1675C115.762 10.5577 116.295 10.064 116.943 9.68651C117.601 9.30901 118.332 9.03798 119.136 8.87342C119.939 8.69919 120.728 8.61208 121.502 8.61208C121.947 8.61208 122.354 8.63627 122.722 8.68467C123.09 8.73307 123.433 8.79599 123.753 8.87342C124.072 8.95086 124.377 9.04766 124.667 9.16381C124.958 9.27029 125.248 9.3816 125.539 9.49776C125.577 9.35257 125.635 9.20737 125.713 9.06218C125.8 8.9073 125.902 8.77179 126.018 8.65563C126.134 8.5298 126.269 8.42816 126.424 8.35073C126.579 8.27329 126.753 8.23457 126.947 8.23457C127.421 8.23457 127.789 8.32653 128.05 8.51044C128.312 8.69435 128.442 9.01862 128.442 9.48324C128.442 9.85107 128.428 10.2334 128.399 10.6303C128.37 11.0271 128.355 11.4627 128.355 11.937C128.404 12.0532 128.438 12.1839 128.457 12.329C128.476 12.4646 128.486 12.5856 128.486 12.692C128.486 12.9243 128.447 13.1228 128.37 13.2873C128.292 13.4422 128.186 13.5729 128.05 13.6794C127.915 13.7761 127.755 13.8487 127.571 13.8971C127.397 13.9455 127.203 13.9697 126.991 13.9697C126.797 13.9697 126.608 13.9359 126.424 13.8681C126.25 13.8003 126.09 13.7132 125.945 13.6068C125.8 13.4906 125.674 13.3599 125.568 13.2147C125.461 13.0695 125.379 12.9195 125.321 12.7646C125.166 12.6388 124.967 12.4984 124.725 12.3436C124.493 12.179 124.212 12.029 123.883 11.8935C123.564 11.7579 123.196 11.6466 122.78 11.5595C122.364 11.4627 121.904 11.4143 121.401 11.4143C120.907 11.4143 120.447 11.4627 120.021 11.5595C119.605 11.6466 119.242 11.7773 118.932 11.9515C118.632 12.1258 118.395 12.3339 118.221 12.5759C118.047 12.8179 117.959 13.0889 117.959 13.389C117.959 13.7761 118.076 14.1101 118.308 14.3908C118.55 14.6618 118.869 14.9038 119.266 15.1168C119.663 15.32 120.123 15.504 120.646 15.6685C121.178 15.8331 121.73 15.9928 122.301 16.1477C123.085 16.3606 123.874 16.5978 124.667 16.8591C125.471 17.1205 126.192 17.4592 126.831 17.8755C127.479 18.282 128.007 18.7999 128.413 19.429C128.82 20.0485 129.023 20.8277 129.023 21.7667C129.023 22.4926 128.912 23.1218 128.689 23.6542C128.467 24.1866 128.171 24.6464 127.804 25.0335C127.436 25.411 127.005 25.7256 126.511 25.9773C126.027 26.2193 125.519 26.408 124.987 26.5436C124.464 26.6888 123.932 26.7855 123.39 26.8339C122.848 26.892 122.335 26.9211 121.851 26.9211C121.173 26.9211 120.52 26.8581 119.891 26.7323C119.261 26.6065 118.666 26.4371 118.105 26.2241C117.553 26.0112 117.045 25.7643 116.58 25.4836C116.125 25.2029 115.733 24.9077 115.404 24.598C115.075 24.2882 114.818 23.9736 114.634 23.6542C114.451 23.3348 114.359 23.0299 114.359 22.7395Z" fill="#2A84FF"/>
</svg>
